<svg width="125" height="82" viewBox="0 0 125 82" fill="none" xmlns="http://www.w3.org/2000/svg">
<path d="M40.15 81.15C39.5 81.05 39 80.55 39 80.1C39 78.15 37.45 66.05 36.5 61C34.65 50.5 30.95 39.6 26.6 31.75C21.65 22.85 15.4 16.2 6 9.95001C0.3 6.10001 -0.699975 4.75 1.90002 4.35L3.25 4.14999L1.90002 4.04998C1.10002 4.04998 0.5 3.75001 0.5 3.45001C0.5 2.80001 1.75 2.90001 12.25 4.20001C28.4 6.25001 45.4 5.54999 65.5 1.99999C67 1.74999 72.0499 1.25001 76.7 0.950005C98.95 -0.499995 114.1 3.95 122.25 14.35L124.5 17.25V43.25V69.25L123.05 72.25C121.35 75.85 118.65 78.55 115.25 80.1L112.75 81.25L77 81.3C57.35 81.35 40.75 81.3 40.15 81.15ZM91.5 57.45C92.65 53.2 92.65 53 92.05 53C91.8 53 91.15 54.9 90.55 57.25C89.3501 62.1 89.3 62.4 90.05 61.65C90.3501 61.35 91 59.45 91.5 57.45ZM80.3 60.1C81.2001 59.55 81.6001 57.55 81.3 55.7C81.05 54.45 80.6499 53.95 79.7 53.7C77.95 53.25 77 54.3 77 56.65C77 59.45 78.65 61.2 80.3 60.1ZM85 58.6C85.05 57.85 85.35 56.7 85.75 56C86.9 53.95 86.7 53.5 84.5 53.5C83 53.5 82.5 53.7 82.5 54.3C82.5 54.85 82.75 55 83.3 54.8C84.65 54.3 84.9 54.9 84.15 57.05C83.45 59.2 83.6 60.8 84.5 60.25C84.75 60.1 85 59.35 85 58.6ZM99.9 59.65C100 59.25 99.65 59 99.05 59C97.8 59 97.7 58.35 98.75 57.5C99.7 56.7 99.7001 54.8 98.8 54C97.8501 53.25 95.9 53.55 95.6 54.45C95.45 54.95 95.7 55.05 96.7 54.8C97.7999 54.5 98 54.65 98 55.65C98 56.3 97.45 57.35 96.75 58C95.15 59.5 95.2 59.9 96.9 60.15C98.9 60.45 99.65 60.35 99.9 59.65ZM104.75 59.55C105.25 58.7 104.4 53.5 103.75 53.5C103.05 53.5 100.5 56.95 100.5 57.9C100.5 58.25 101.05 58.5 101.7 58.5C102.35 58.5 103 58.85 103.2 59.25C103.5 60.1 104.3 60.25 104.75 59.55ZM82.7 28.4C83.6 27.1 83.75 24.4 83 22.95C82.6 22.3 81.95 22 80.75 22C79.3 22 78.95 22.2 78.7 23.35C78.25 25.05 79 26.2 80.7 26.4C81.3999 26.5 82 26.85 82 27.25C82 28.05 80.75 28.55 79.75 28.2C79.3 28 79 28.2 79 28.7C79 29.95 81.7999 29.75 82.7 28.4ZM89.3 29.1C89.9 28.75 90.15 27.55 90.05 25.9C90 25.4 89.5 25 88.65 24.9C87.8 24.8 87.2 24.4 87.1 23.9C86.95 23.2 87.25 23 88.45 23C89.2999 23 90 22.75 90 22.45C90 22.15 89.15 22 87.9 22.1C85.85 22.25 85.8 22.3 85.75 24C85.75 25.5 85.95 25.75 87 25.9C88.75 26.15 89.3 26.8 88.55 27.7C88.1001 28.2 87.45 28.35 86.45 28.15C85 27.9 84.35 28.65 85.65 29.15C86.6 29.55 88.7001 29.55 89.3 29.1ZM96.9 28.2C97.25 27.5 97.35 26.6 97.1 26.1C96.85 25.65 96.7 24.6 96.75 23.8C96.85 21.05 94.6 21.9 92.65 25.4C91.7 27.05 91.85 27.5 93.45 27.5C94.45 27.5 94.95 27.8 95.15 28.5C95.5 29.85 96.2 29.75 96.9 28.2ZM103.45 28.8C103.8 28.4 104 27.45 103.9 26.65C103.75 25.45 103.5 25.25 102.1 25.1C100.85 24.95 100.5 24.75 100.7 24.15C100.85 23.75 101 23.3 101 23.2C101 23.1 101.7 23 102.5 23C103.35 23 104 22.8 104 22.5C104 22.25 103.25 22 102.3 22C100.2 22 99 23.45 99 25.95C99 28.85 101.9 30.7 103.45 28.8ZM38.2 26.2C38.65 26.05 39 25.5 39 25C39 24 37.85 23.4 36.75 23.8C35.85 24.15 35.75 25.8 36.65 26.15C36.95 26.3 37.3 26.45 37.35 26.45C37.4 26.5 37.75 26.35 38.2 26.2ZM46.25 25C46.25 24 46 23.75 45 23.75C43.6 23.75 42.95 25.35 44.1 26.05C45.25 26.8 46.25 26.3 46.25 25ZM53.2 26.2C54.1 25.85 54.3 24.25 53.5 23.75C53.2 23.6 52.55 23.6 52 23.75C50.9 24.1 50.65 25.75 51.65 26.15C51.95 26.3 52.3 26.45 52.35 26.45C52.4 26.5 52.75 26.35 53.2 26.2ZM61.25 25C61.25 24.1 60.95 23.7 60.1 23.6C58.9 23.4 58.2 24.5 58.7 25.8C58.85 26.25 59.45 26.5 60.1 26.4C60.95 26.3 61.25 25.9 61.25 25ZM27.9 6.64999C26.85 6.54999 25.05 6.54999 23.9 6.64999C22.7 6.74999 23.55 6.85 25.75 6.85C27.95 6.85 28.9 6.74999 27.9 6.64999ZM37.65 6.64999C37 6.54999 35.9 6.54999 35.15 6.64999C34.35 6.74999 34.9 6.85 36.25 6.85C37.65 6.85 38.25 6.74999 37.65 6.64999ZM18.65 6.14999C18 6.04999 17 6.04999 16.4 6.14999C15.75 6.24999 16.25 6.35 17.5 6.35C18.75 6.35 19.25 6.24999 18.65 6.14999ZM51.4 5.64999C50.9 5.54999 50.1 5.54999 49.65 5.64999C49.15 5.79999 49.55 5.89999 50.5 5.89999C51.45 5.89999 51.85 5.79999 51.4 5.64999ZM8.90002 5.14999C8.40002 5.04999 7.60002 5.04999 7.15002 5.14999C6.65002 5.29999 7.05 5.39999 8 5.39999C8.95 5.39999 9.35002 5.29999 8.90002 5.14999ZM80.65 2.14999C79.75 2.04999 78.25 2.04999 77.4 2.14999C76.5 2.24999 77.2 2.35 79 2.35C80.8 2.35 81.5 2.24999 80.65 2.14999ZM91.15 2.14999C90.5 2.04999 89.4 2.04999 88.65 2.14999C87.85 2.24999 88.4 2.35 89.75 2.35C91.15 2.35 91.75 2.24999 91.15 2.14999Z" fill="#FFC005"/>
</svg>
