<svg width="189" height="60" viewBox="0 0 189 60" fill="none" xmlns="http://www.w3.org/2000/svg">
<path d="M187.5 58.5C187.1 57.55 184.85 54.8 182.5 52.45C179.05 48.95 177.45 47.8 174 46.1C161.7 40.2 149.65 39.55 123.5 43.4C102.85 46.5 87.55 46.4 66 43.2L64.25 42.95L66.35 44.05C67.5499 44.7 68.45 45.25 68.35 45.3C67.7999 45.75 61.65 43.7 57 41.4C53.85 39.85 48.95 37.75 46.2 36.75C41.9 35.2 41.1499 34.75 41.3499 33.95C41.5 33.45 41.8 33.15 42.05 33.3C42.3 33.45 42.5 33.3 42.5 33.05C42.5 32.75 42.3 32.5 42 32.5C41.7 32.5 41.5 30.1 41.5 26.35C41.5 17.7 42.2999 18.25 28.5999 18.3C18.0499 18.35 17.8 18.4 16.9 19.5C16.4 20.1 16 21.2 16 21.9V23.15L14.5 21.55C13.65 20.7 12.7999 20 12.5999 20C12.3999 20 9.59995 17.3 6.34995 14C-0.450051 7.20001 -0.450002 7.1 3.65 4.05C9.2 -3.33786e-06 0.299988 0.400009 91.45 0.250009C143.4 0.150009 173.85 0.250015 175.75 0.600015C180.9 1.40002 184.9 4.50001 187.1 9.25001C188.25 11.7 188.25 12.1 188.4 31.25C188.5 42 188.5 52.9 188.4 55.5C188.25 60.2 188.25 60.25 187.5 58.5ZM148.8 28.75C149.5 27.1 150.4 25.15 150.75 24.4C151.35 23.2 151.35 23 150.45 22.75C149.1 22.3 148.7 22.7 147.75 25.5C147.3 26.9 146.7 28 146.5 28C146.25 28 145.9 27.15 145.75 26.15C145.3 23.4 144.85 22.75 143 22.6C140.8 22.35 139.95 23.3 141.95 23.75C143.1 24 143.5 24.35 143.5 25.15C143.5 25.7 143.85 27.5 144.3 29.1C145.05 31.75 145.25 32.05 146.35 31.9C147.3 31.8 147.8 31.1 148.8 28.75ZM153.45 28.9C154.4 23.5 154.35 22.75 153.3 22.75C152.55 22.75 152.2 23.35 151.7 25.5C151.15 27.95 150.8 30.6 150.95 31.65C151 31.85 151.4 32 151.95 32C152.7 32 153 31.4 153.45 28.9ZM160.5 31C162 29.5 161.8 27.75 160 26.65C158.2 25.6 158.3 24.75 160.3 24.75C161.25 24.75 161.8 24.45 161.9 23.9C162.05 23.15 161.7 23 159.95 23C156.1 23 154.65 25.95 157.5 28C159.6 29.5 159.4 30.2 157 29.85C155.15 29.6 155 29.7 155 30.8C155 31.9 155.2 32 157.25 32C158.85 32 159.8 31.7 160.5 31ZM164.3 31.25C164.5 30.85 165.2 30.5 166 30.5C166.8 30.5 167.5 30.85 167.7 31.25C167.85 31.65 168.45 32 169.05 32C170.2 32 170.2 32.15 169 26.25C168.25 22.65 168 22.35 166.4 22.75C165.45 23 164.8 23.95 163.4 27.25C162.4 29.55 161.75 31.55 161.9 31.7C162.45 32.3 164.05 32 164.3 31.25ZM9.19999 13.9C6.74999 11.25 5.79997 10.3 4.74997 9.55C4.19997 9.15 5.19997 10.3 6.99997 12.15C10.25 15.55 11.95 16.85 9.19999 13.9Z" fill="#00C3F8"/>
</svg>
