<svg width="107" height="114" viewBox="0 0 107 114" fill="none" xmlns="http://www.w3.org/2000/svg">
<path d="M11 113.55C6.64999 112.2 3.25002 109.25 1.40002 105.25L0.249993 102.75L0.0999689 55.75C-0.0500311 13.75 0.0499933 8.45001 0.749993 5.70001C1.19999 4.05001 1.95001 2.05001 2.45001 1.35001L3.29998 0L6.59997 3.60001C8.39997 5.60001 11.7 8.85 13.9 10.75L17.95 14.25L18 21.3C18 27.5 18.1 28.45 18.9 29.15C19.7 29.9 21.3 30 30.85 30C40.7 30 41.9 29.9 42.6 29.15C43.05 28.65 43.45 28 43.55 27.65C43.8 26.85 52.6 30.2 60.85 34.25C84.95 46.05 96 59.85 102.55 86.25C104.25 92.95 105 98.1 106.25 110.9L106.55 114L59.4 113.95C33.45 113.95 11.7 113.75 11 113.55ZM21.05 91.5C21.55 91.5 22.1 91.95 22.25 92.5C22.6 93.55 23.25 93.8 23.7 93.1C24 92.6 22.15 86.95 21.5 86.3C20.75 85.55 19.9 86.65 18.95 89.85C18 92.9 18.2 94.35 19.4 92.6C19.8 92 20.55 91.5 21.05 91.5ZM26.1 90.15C25.9 86.25 25.75 85.5 25 85.5C24.45 85.5 24.3 92.6 24.85 93.15C25.9 94.25 26.3 93.3 26.1 90.15ZM33.5 92.45C33.9 91.85 34.05 91.9 34.65 92.7C35.05 93.25 35.6 93.5 35.95 93.3C36.4 93 36.35 92.65 35.7 91.95C34.95 91.1 34.95 90.8 35.5 89.75C36.3 88.25 35.7 87.35 34.75 88.65C34.2 89.4 34.05 89.4 33.5 88.75C32.7 87.8 32 87.8 32 88.75C32 89.15 32.25 89.5 32.5 89.5C33.2 89.5 33.1 91.3 32.4 91.9C31.65 92.45 28.5 92.1 28.5 91.45C28.5 91.2 29.2 91 30 91C31.6 91 31.8 90.55 31 88.95C30.4 87.9 28.5 87.7 27.6 88.6C26.75 89.45 26.85 91.8 27.75 92.7C28.75 93.65 32.9 93.5 33.5 92.45ZM43.2 92.7C44.45 91.5 44.15 90.55 42.25 89.45C40.35 88.3 40.4 87.25 42.3 87.7C43.15 87.95 43.5 87.8 43.5 87.3C43.5 86.25 41.45 85.95 40.15 86.8C38.55 87.85 38.7 88.85 40.75 90.05C41.7 90.65 42.5 91.35 42.5 91.6C42.5 91.95 41.8 92 40.75 91.85C39.45 91.65 39 91.75 39 92.25C39 93.5 42.1 93.85 43.2 92.7ZM46.6 91C46.8 88.75 47.7 88.95 48 91.3C48.35 94 49.4 94.05 49.6 91.4C49.8 88.8 50.65 88.75 51 91.3C51.4 94.1 52.5 94.1 52.5 91.3C52.5 90.05 52.2 88.9 51.9 88.65C51.55 88.45 49.85 88.25 48.15 88.2L45 88.1V90.5C45 94.1 46.25 94.5 46.6 91ZM55.1 90.95C55.25 88.4 54.95 87.65 54 88.25C53.2 88.75 53.35 93.5 54.2 93.5C54.7 93.5 54.95 92.7 55.1 90.95ZM59.25 93C59.4 92.7 59.2 92.35 58.8 92.2C57.75 91.8 57.8 89.65 58.9 89.05C59.7 88.6 59.7 88.55 58.9 88.25C58.4 88.05 58 87.6 58 87.2C58 86.25 57.15 86.3 56.6 87.35C56.05 88.3 56.4 91.95 57.15 92.9C57.7 93.65 58.8 93.7 59.25 93ZM61.6 91C61.8 88.75 62.7 88.95 63 91.3C63.35 94.05 64.5 94.1 64.5 91.4C64.5 88.75 63.9 87.75 62.6 88.1C61.75 88.35 61.55 88.15 61.4 87.05C61.3 86.35 61.05 85.75 60.75 85.75C60.2 85.75 59.8 91.7 60.25 92.9C60.7 94.05 61.4 93 61.6 91ZM55 86.8C55 86.4 54.8 85.95 54.55 85.75C53.95 85.4 53.35 86.35 53.75 87C54.2 87.75 55 87.6 55 86.8ZM20.75 58C20.75 57.1 20.45 56.7 19.6 56.6C18.4 56.4 17.7 57.5 18.2 58.8C18.35 59.25 18.95 59.5 19.6 59.4C20.45 59.3 20.75 58.9 20.75 58ZM28.25 58C28.25 57.1 27.95 56.7 27.1 56.6C25.9 56.4 25.2 57.5 25.7 58.8C25.85 59.25 26.45 59.5 27.1 59.4C27.95 59.3 28.25 58.9 28.25 58ZM35.75 58C35.75 57.1 35.45 56.7 34.6 56.6C33.4 56.4 32.7 57.5 33.2 58.8C33.35 59.25 33.95 59.5 34.6 59.4C35.45 59.3 35.75 58.9 35.75 58ZM43.25 58C43.25 57.1 42.95 56.7 42.1 56.6C40.9 56.4 40.2 57.5 40.7 58.8C40.85 59.25 41.45 59.5 42.1 59.4C42.95 59.3 43.25 58.9 43.25 58ZM62.75 58C62.75 57.1 62.45 56.7 61.6 56.6C60.95 56.5 60.35 56.75 60.2 57.2C59.7 58.5 60.4 59.6 61.6 59.4C62.45 59.3 62.75 58.9 62.75 58ZM70.25 58C70.25 57.1 69.95 56.7 69.1 56.6C67.9 56.4 67.2 57.5 67.7 58.8C67.85 59.25 68.45 59.5 69.1 59.4C69.95 59.3 70.25 58.9 70.25 58ZM77.75 58C77.75 57.1 77.45 56.7 76.6 56.6C75.4 56.4 74.7 57.5 75.2 58.8C75.35 59.25 75.95 59.5 76.6 59.4C77.45 59.3 77.75 58.9 77.75 58ZM85.25 58C85.25 57.1 84.95 56.7 84.1 56.6C83.45 56.5 82.85 56.75 82.7 57.2C82.2 58.5 82.9 59.6 84.1 59.4C84.95 59.3 85.25 58.9 85.25 58Z" fill="#3326AE"/>
</svg>
