<svg width="15" height="28" viewBox="0 0 15 28" fill="none" xmlns="http://www.w3.org/2000/svg">
<path d="M0.900024 27.15C-0.299976 26.85 -0.249976 25.5 0.900024 25.5C1.50002 25.5 1.94998 24.9 2.34998 23.5C2.84998 21.5 2.85001 21.5 1.45001 21.5C0.0500122 21.5 0 21.4 0 19.25C0 17.35 0.15 17 1 17C2.2 17 2.24999 16.6 1.29999 15.55C0.449988 14.55 -0.299988 6 0.450012 6C0.750012 6 1 6.35 1 6.75C1 7.15 1.15002 7.5 1.40002 7.5C2.30002 7.55 3.00001 8.40002 2.70001 9.15002C2.55001 9.60002 2.20001 9.85001 1.95001 9.70001C1.70001 9.55001 1.5 10.1 1.5 10.95C1.5 11.95 1.89999 12.75 2.79999 13.45C3.49999 14 4.00001 14.75 3.95001 15.1C3.75001 16.55 4.05002 17 5.15002 17C6.85002 17 10.5 13.7 10.5 12.2C10.5 11.35 10.8 11 11.45 11C12 11 12.55 10.8 12.7 10.55C13.05 9.99999 11.6 9.39999 10.95 9.79999C10.7 9.94999 10.5 9.6 10.5 9C10.5 7.95 8.15 4.60002 6.25 2.90002C5.65 2.35002 4.80002 2.1 4.15002 2.25C3.20002 2.5 3 2.3 3 1.25C3 0.1 3.2 0 5 0C6.45 0 7 0.2 7 0.75C7 1.15 7.24999 1.5 7.54999 1.5C8.14999 1.5 9.5 2.74998 9.5 3.34998C9.5 3.54998 9.95 4.05002 10.5 4.40002C11.05 4.75002 11.5 5.34999 11.5 5.79999C11.5 6.79999 12.7 8 13.7 8C14.85 8 14.8 11.9 13.65 12.8C12.9 13.3 12.85 13.55 13.4 14.05C13.7 14.4 14 15.35 14 16.1C14 17.4 13.9 17.5 13 17C12.4 16.7 11.75 15.9 11.5 15.2C11.25 14.55 10.95 14 10.8 14C10.4 14 8 18.45 8 19.2C8 19.6 7.40002 20.4 6.65002 21C4.80002 22.4 4.05 23.9 4 25.9C4 27.55 3.35002 27.8 0.900024 27.15ZM5.54999 19.5C5.79999 19.5 6 19.15 6 18.75C6 18.3 5.55 18 4.75 18C3.8 18 3.5 18.25 3.5 19.05C3.5 19.8 3.69999 20 4.29999 19.8C4.74999 19.65 5.29999 19.5 5.54999 19.5Z" fill="#FF392B"/>
</svg>
