<svg width="17" height="28" viewBox="0 0 17 28" fill="none" xmlns="http://www.w3.org/2000/svg">
<path d="M1.40002 27.65C0.700024 27.5 0.5 26.9 0.5 25.2C0.5 23.35 0.650024 23 1.40002 23.1C2.10002 23.2 2.19998 22.95 2.09998 21.65C1.99998 20.75 2.15001 20 2.45001 20C2.70001 20 2.99998 20.7 3.09998 21.6C3.34998 24.15 4.5 23.95 4.5 21.35C4.5 17.4 4.00001 15.95 2.45001 15.4C1.05001 14.9 0.999976 14.85 1.34998 12.1C1.54998 10.3 1.50002 9.45002 1.15002 9.65002C0.850024 9.85002 0.750024 9.5 0.900024 8.75C1.00002 8.05 1.29999 7.35 1.54999 7.25C1.74999 7.1 1.85001 6.69998 1.70001 6.34998C1.35001 5.34998 2.85 2.19998 4.25 1.09998C5.25 0.299976 6.25 0.0999756 8.75 0.0999756C11.55 0.149976 12.15 0.350012 13.2 1.45001C15.05 3.40001 16.3 7.25 16.7 12C16.95 15.45 16.9 16.45 16.25 17.25C15.5 18.25 15.5 18.25 14.85 17.25C14.55 16.7 14.1 15.5 13.95 14.55C13.7 13.15 13.85 12.65 14.65 12C15.8 11.05 15.5 9.20002 14.3 9.65002C13.6 9.90002 10 5.90002 10 4.90002C10 4.65002 9.40002 3.94999 8.65002 3.29999L7.29999 2.09998L5.45001 3.34998C4.45001 3.99998 3.39998 5.05001 3.09998 5.70001C2.44998 7.15001 2.84999 9 3.79999 9C4.19999 9 4.5 9.35 4.5 9.75C4.5 10.15 4.29999 10.5 4.04999 10.5C3.24999 10.5 2.99998 12 3.59998 13.4C4.74998 15.95 6.55002 18.55 7.15002 18.45C9.30002 18.2 9.75001 20.15 7.95001 21.8C7.35001 22.3 6.55001 23.35 6.20001 24.15C5.80001 24.9 5.25 25.4 5 25.25C4.75 25.1 4.50002 25.6 4.40002 26.35C4.25002 27.8 3.30002 28.2 1.40002 27.65Z" fill="#000013"/>
</svg>
